<svg id="Layer_1" data-name="Layer 1" xmlns="http://www.w3.org/2000/svg" viewBox="0 0 16 16">
    <title>lbjava</title>
    <g>
        <g>
            <polygon points="6 0 2 4 6 4 6 0" fill="#9aa7b0" opacity="0.7" style="isolation: isolate"/>
            <rect x="1" y="9" width="15" height="7" fill="#f26522" opacity="0.6"/>
            <polygon points="7 0 7 4 7 5 6 5 2 5 2 8 13 8 13 0 7 0" fill="#9aa7b0" opacity="0.7" style="isolation: isolate"/>
        </g>
        <path d="M10,10h0.87879v4.19972H13.507V15H10V10Z" fill="#231f20" opacity="0.6" transform="translate(-7.7)"/>
        <g opacity="0.6" transform="translate(-4)">
            <path d="M11,10h1.97162a1.67844,1.67844,0,0,1,1.90008,1.67151v0.01454a1.76377,1.76377,0,0,1-2.00012,1.707H11.87879V15H11V10Zm1.90008,2.60033a0.94221,0.94221,0,0,0,1.07886-.89333V11.693a0.91187,0.91187,0,0,0-1.07886-.89275H11.87879v1.8h1.02129Z" fill="#231f20"/>-->
        </g>
        <g opacity="0.6" transform="translate(9.3)">
            <path d="M1.83158,14.20413l0.55808-.59174a1.18477,1.18477,0,0,0,.97089.58486,0.8,0.8,0,0,0,.765-0.9719V10H5v3.25344a1.81349,1.81349,0,0,1-.45431,1.30963A1.5894,1.5894,0,0,1,3.37456,15,1.8047,1.8047,0,0,1,1.83158,14.20413Z" fill="#231f20"/>
        </g>
    </g>
</svg>
